<?xml version="1.0" encoding="utf-8"?>
<!-- Generator: Adobe Illustrator 24.0.1, SVG Export Plug-In . SVG Version: 6.00 Build 0)  -->
<svg version="1.1" id="Capa_2" xmlns="http://www.w3.org/2000/svg" xmlns:xlink="http://www.w3.org/1999/xlink" x="0px" y="0px"
	 viewBox="0 0 60 60" style="enable-background:new 0 0 60 60;" xml:space="preserve">
<style type="text/css">
	.st0{fill:#FFFAFF;}
</style>
<g>
	<path class="st0" d="M50.5,0h-41C4.25,0,0,4.25,0,9.5v41C0,55.75,4.25,60,9.5,60h41c5.25,0,9.5-4.25,9.5-9.5v-41
		C60,4.25,55.75,0,50.5,0z M30.93,43.44l-1.44-4.05h-9.63l-1.44,4.05H9.87L20.22,15.9h9l10.17,27.54H30.93z M47.4,43.44h-6.93v-21.6
		h6.93V43.44z M43.94,20.86c-2.22,0-4.01-1.55-4.01-3.47c0-1.92,1.79-3.47,4.01-3.47c2.21,0,4,1.55,4,3.47
		C47.94,19.31,46.15,20.86,43.94,20.86z"/>
	<g>
		<polygon class="st0" points="27.42,32.55 21.48,32.55 24.63,24 		"/>
	</g>
</g>
</svg>
