<?xml version="1.0" encoding="utf-8"?>
<!-- Generator: Adobe Illustrator 24.0.1, SVG Export Plug-In . SVG Version: 6.00 Build 0)  -->
<svg version="1.1" id="Capa_2" xmlns="http://www.w3.org/2000/svg" xmlns:xlink="http://www.w3.org/1999/xlink" x="0px" y="0px"
	 viewBox="0 0 60 60" style="enable-background:new 0 0 60 60;" xml:space="preserve">
<style type="text/css">
	.st0{fill:#FFFAFF;}
</style>
<g>
	<path class="st0" d="M50.5,0h-41C4.25,0,0,4.25,0,9.5v41C0,55.75,4.25,60,9.5,60h41c5.25,0,9.5-4.25,9.5-9.5v-41
		C60,4.25,55.75,0,50.5,0z M22.3,43.44h-6.93V14.82h6.93V43.44z M44.71,41.37c0,0-1.29,1.17-5.58,1.35
		c-2.19,0.09-13.23,0.9-13.41-9.81c-0.18-10.71,9.54-12.33,12.96-11.16v-8.64h6.03V41.37z"/>
	<path class="st0" d="M38.5,26.25v11.34c0,0-6.39,0-6.39-5.67S38.5,26.25,38.5,26.25z"/>
</g>
</svg>
