<?xml version="1.0" encoding="utf-8"?>
<!-- Generator: Adobe Illustrator 24.0.1, SVG Export Plug-In . SVG Version: 6.00 Build 0)  -->
<svg version="1.1" id="Capa_2" xmlns="http://www.w3.org/2000/svg" xmlns:xlink="http://www.w3.org/1999/xlink" x="0px" y="0px"
	 viewBox="0 0 60 60" style="enable-background:new 0 0 60 60;" xml:space="preserve">
<style type="text/css">
	.st0{fill:#FFFAFF;}
</style>
<g>
	<path class="st0" d="M50.5,0h-41C4.25,0,0,4.25,0,9.5v41C0,55.75,4.25,60,9.5,60h41c5.25,0,9.5-4.25,9.5-9.5v-41
		C60,4.25,55.75,0,50.5,0z M23.64,33.48h-3.96v8.76h-6.93v-27h11.37c0,0,8.28,0.24,8.28,9.24S23.64,33.48,23.64,33.48z M49.34,39.05
		c-0.51,0.85-1.19,1.54-2.03,2.08c-0.85,0.53-1.82,0.92-2.92,1.16c-1.1,0.25-2.25,0.37-3.43,0.37c-2.18,0-4.2-0.34-6.05-1.03v-5.06
		c1,0.62,2,1.08,3,1.38c1,0.31,1.95,0.46,2.83,0.46c1.09,0,1.94-0.15,2.57-0.46c0.62-0.3,0.93-0.76,0.93-1.38
		c0-0.4-0.14-0.73-0.42-0.99c-0.29-0.26-0.65-0.49-1.09-0.69c-0.45-0.2-0.94-0.38-1.46-0.54c-0.53-0.15-1.04-0.33-1.53-0.53
		c-0.79-0.3-1.48-0.63-2.08-0.98c-0.6-0.35-1.1-0.75-1.51-1.22c-0.4-0.46-0.71-0.99-0.92-1.6c-0.22-0.6-0.32-1.32-0.32-2.15
		c0-1.14,0.24-2.11,0.72-2.93s1.13-1.49,1.93-2.01c0.81-0.52,1.73-0.9,2.77-1.14c1.04-0.25,2.12-0.37,3.24-0.37
		c0.87,0,1.76,0.07,2.66,0.21c0.91,0.14,1.8,0.34,2.67,0.6v4.83c-0.77-0.47-1.6-0.81-2.48-1.04c-0.89-0.23-1.75-0.35-2.6-0.35
		c-0.4,0-0.78,0.04-1.13,0.11c-0.36,0.07-0.67,0.18-0.94,0.32c-0.27,0.14-0.48,0.31-0.64,0.53c-0.15,0.22-0.23,0.47-0.23,0.74
		c0,0.37,0.12,0.69,0.35,0.95c0.23,0.27,0.53,0.49,0.91,0.68c0.37,0.2,0.79,0.37,1.24,0.52c0.46,0.15,0.91,0.31,1.37,0.46
		c0.81,0.29,1.54,0.61,2.2,0.95c0.66,0.35,1.22,0.75,1.69,1.21c0.47,0.46,0.83,1,1.08,1.62s0.38,1.36,0.38,2.22
		C50.1,37.18,49.85,38.2,49.34,39.05z"/>
	<path class="st0" d="M26.28,24.39c0,3.93-2.94,3.69-2.94,3.69h-3.66v-7.61h2.9C22.62,20.47,26.28,20.48,26.28,24.39z"/>
</g>
</svg>
