<svg xmlns="http://www.w3.org/2000/svg" viewBox="0 0 1920.38 1035.71"><defs><style>.cls-1{fill:#9a7fa2;}.cls-2,.cls-3,.cls-4,.cls-5{fill:none;stroke-miterlimit:10;}.cls-2{stroke:#ff8a4b;}.cls-2,.cls-3,.cls-4{stroke-width:19.99px;}.cls-3{stroke:#fffaff;}.cls-4,.cls-5{stroke:#9a7fa2;}.cls-5{stroke-width:59.97px;}</style></defs><title>fondo-hero</title><g id="Capa_2" data-name="Capa 2"><g id="Capa_1-2" data-name="Capa 1"><rect class="cls-1" width="1920" height="909.03"/><path class="cls-2" d="M0,967.57c50.53,0,50.53,19.43,101.05,19.43s50.53-19.43,101.05-19.43S252.62,987,303.15,987s50.53-19.43,101.05-19.43S454.73,987,505.25,987s50.53-19.43,101-19.43S656.83,987,707.36,987s50.52-19.43,101-19.43S858.94,987,909.46,987s50.53-19.43,101-19.43S1061,987,1111.57,987s50.52-19.43,101-19.43S1263.14,987,1313.67,987s50.52-19.43,101-19.43,50.53,19.43,101,19.43,50.53-19.43,101.06-19.43S1667.35,987,1717.88,987s50.53-19.43,101.06-19.43S1869.47,987,1920,987"/><path class="cls-3" d="M.38,986.29c50.52,0,50.52,19.42,101.05,19.42s50.52-19.42,101-19.42,50.52,19.42,101,19.42,50.53-19.42,101.06-19.42,50.52,19.42,101.05,19.42,50.52-19.42,101-19.42,50.53,19.42,101.05,19.42,50.53-19.42,101-19.42,50.53,19.42,101.06,19.42,50.52-19.42,101-19.42,50.52,19.42,101.05,19.42,50.52-19.42,101-19.42,50.53,19.42,101,19.42,50.53-19.42,101.06-19.42,50.52,19.42,101.05,19.42,50.52-19.42,101-19.42,50.53,19.42,101.06,19.42,50.53-19.42,101.06-19.42,50.53,19.42,101.06,19.42"/><path class="cls-3" d="M.38,948.29c50.52,0,50.52,19.42,101.05,19.42s50.52-19.42,101-19.42,50.52,19.42,101,19.42,50.53-19.42,101.06-19.42,50.52,19.42,101.05,19.42,50.52-19.42,101-19.42,50.53,19.42,101.05,19.42,50.53-19.42,101-19.42,50.53,19.42,101.06,19.42,50.52-19.42,101-19.42,50.52,19.42,101.05,19.42,50.52-19.42,101-19.42,50.53,19.42,101,19.42,50.53-19.42,101.06-19.42,50.52,19.42,101.05,19.42,50.52-19.42,101-19.42,50.53,19.42,101.06,19.42,50.53-19.42,101.06-19.42,50.53,19.42,101.06,19.42"/><path class="cls-4" d="M.38,1006.29c50.52,0,50.52,19.42,101.05,19.42s50.52-19.42,101-19.42,50.52,19.42,101,19.42,50.53-19.42,101.06-19.42,50.52,19.42,101.05,19.42,50.52-19.42,101-19.42,50.53,19.42,101.05,19.42,50.53-19.42,101-19.42,50.53,19.42,101.06,19.42,50.52-19.42,101-19.42,50.52,19.42,101.05,19.42,50.52-19.42,101-19.42,50.53,19.42,101,19.42,50.53-19.42,101.06-19.42,50.52,19.42,101.05,19.42,50.52-19.42,101-19.42,50.53,19.42,101.06,19.42,50.53-19.42,101.06-19.42,50.53,19.42,101.06,19.42"/><path class="cls-5" d="M0,909.6C50.53,909.6,50.53,929,101.05,929S151.58,909.6,202.1,909.6,252.62,929,303.15,929,353.68,909.6,404.2,909.6,454.73,929,505.25,929s50.53-19.43,101-19.43S656.83,929,707.36,929s50.52-19.43,101-19.43S858.94,929,909.46,929s50.53-19.43,101-19.43S1061,929,1111.57,929s50.52-19.43,101-19.43S1263.14,929,1313.67,929s50.52-19.43,101-19.43,50.53,19.43,101,19.43,50.53-19.43,101.06-19.43S1667.35,929,1717.88,929s50.53-19.43,101.06-19.43S1869.47,929,1920,929"/></g></g></svg>