<svg xmlns="http://www.w3.org/2000/svg" viewBox="0 0 1920.38 78.13"><defs><style>.cls-1,.cls-2,.cls-3{fill:none;stroke-miterlimit:10;stroke-width:19.99px;}.cls-1{stroke:#ff8a4b;}.cls-2{stroke:#fffaff;}.cls-3{stroke:#9a7fa2;}</style></defs><title>separador</title><g id="Capa_2" data-name="Capa 2"><g id="Capa_1-2" data-name="Capa 1"><path class="cls-1" d="M1920.38,68.14c-50.53,0-50.53-19.43-101.06-19.43s-50.52,19.43-101,19.43-50.52-19.43-101-19.43-50.53,19.43-101.06,19.43-50.52-19.43-101.05-19.43-50.52,19.43-101,19.43-50.53-19.43-101-19.43-50.53,19.43-101,19.43-50.53-19.43-101.06-19.43-50.52,19.43-101,19.43S859.34,48.71,808.81,48.71s-50.52,19.43-101,19.43-50.53-19.43-101-19.43S556.18,68.14,505.65,68.14s-50.52-19.43-101-19.43S354.08,68.14,303.55,68.14,253,48.71,202.49,48.71,152,68.14,101.43,68.14,50.9,48.71.38,48.71"/><path class="cls-2" d="M1920,49.42c-50.53,0-50.53-19.43-101-19.43s-50.53,19.43-101,19.43S1667.38,30,1616.85,30s-50.53,19.43-101,19.43S1465.27,30,1414.75,30s-50.53,19.43-101,19.43S1263.17,30,1212.64,30s-50.52,19.43-101.05,19.43S1061.06,30,1010.54,30,960,49.42,909.49,49.42,859,30,808.43,30s-50.52,19.43-101,19.43S656.86,30,606.33,30,555.81,49.42,505.28,49.42,454.75,30,404.23,30,353.7,49.42,303.17,49.42,252.65,30,202.12,30,151.59,49.42,101.06,49.42,50.53,30,0,30"/><path class="cls-3" d="M1920,29.42c-50.53,0-50.53-19.43-101-19.43s-50.53,19.43-101,19.43S1667.38,10,1616.85,10s-50.53,19.43-101,19.43S1465.27,10,1414.75,10s-50.53,19.43-101,19.43S1263.17,10,1212.64,10s-50.52,19.43-101.05,19.43S1061.06,10,1010.54,10,960,29.42,909.49,29.42,859,10,808.43,10s-50.52,19.43-101,19.43S656.86,10,606.33,10,555.81,29.42,505.28,29.42,454.75,10,404.23,10,353.7,29.42,303.17,29.42,252.65,10,202.12,10,151.59,29.42,101.06,29.42,50.53,10,0,10"/></g></g></svg>